<?xml version="1.0" encoding="utf-8"?>
<!-- Generator: Adobe Illustrator 25.0.1, SVG Export Plug-In . SVG Version: 6.00 Build 0)  -->
<svg version="1.1" id="Layer_1" xmlns="http://www.w3.org/2000/svg" xmlns:xlink="http://www.w3.org/1999/xlink" x="0px" y="0px"
	 viewBox="0 0 224.5 45" enable-background="new 0 0 224.5 45" xml:space="preserve">
<g>
	<path fill="none" stroke="#25346F" stroke-width="3.75" stroke-linecap="square" stroke-miterlimit="10" d="M182.2,29.5
		C196.4,54.1,222,38,222,38"/>
	<g>
		<path fill="#25346F" d="M0,2.5C0,1.1,1.1,0,2.5,0c1.3,0,2.4,1.1,2.4,2.5C4.9,3.9,3.8,5,2.5,5C1.1,5,0,3.9,0,2.5z M0.6,8.5h3.6
			v21.9H0.6V8.5z"/>
		<path fill="#25346F" d="M42.1,18c0-4.5-2.4-6.8-6-6.8c-3.7,0-6.2,2.4-6.2,7.1v12.1h-3.6V18c0-4.5-2.4-6.8-6-6.8
			c-3.7,0-6.2,2.4-6.2,7.1v12.1h-3.6V8.5h3.6v3.2c1.4-2.3,4-3.6,6.9-3.6c3.6,0,6.6,1.6,8,4.9c1.3-3.2,4.4-4.9,7.8-4.9
			c5,0,8.9,3.1,8.9,9.4v12.9h-3.6V18z"/>
		<path fill="#25346F" d="M60.7,8.2c4.1,0,6.9,2.1,8.2,4.4v-4h3.7v21.9h-3.7v-4.1c-1.3,2.4-4.2,4.4-8.2,4.4
			c-5.8,0-10.4-4.6-10.4-11.4C50.3,12.6,54.8,8.2,60.7,8.2z M61.4,11.3c-4,0-7.4,2.9-7.4,8.1s3.4,8.2,7.4,8.2s7.4-3,7.4-8.2
			C68.8,14.4,65.4,11.3,61.4,11.3z"/>
		<path fill="#25346F" d="M87.7,8.2c4,0,6.9,2,8.2,4.4v-4h3.7v22.4c0,6-4,10.3-10.5,10.3c-5.8,0-9.9-2.9-10.6-7.6h3.6
			c0.8,2.6,3.4,4.4,7,4.4c3.9,0,6.8-2.5,6.8-7.2v-4.6c-1.3,2.4-4.2,4.5-8.2,4.5c-5.9,0-10.4-4.6-10.4-11.4
			C77.3,12.6,81.8,8.2,87.7,8.2z M88.4,11.3c-4,0-7.4,2.9-7.4,8.1s3.4,8.2,7.4,8.2s7.4-3,7.4-8.2C95.9,14.4,92.4,11.3,88.4,11.3z"/>
		<path fill="#25346F" d="M105.1,2.5c0-1.4,1.1-2.5,2.5-2.5c1.3,0,2.4,1.1,2.4,2.5c0,1.4-1.1,2.5-2.4,2.5
			C106.2,5,105.1,3.9,105.1,2.5z M105.7,8.5h3.6v21.9h-3.6V8.5z"/>
		<path fill="#25346F" d="M131.6,18c0-4.5-2.4-6.8-6.1-6.8c-3.7,0-6.3,2.3-6.3,7v12.1h-3.6V8.5h3.6v3.1c1.4-2.3,4.1-3.5,7-3.5
			c5.1,0,9,3.1,9,9.4v12.9h-3.6V18z"/>
		<path fill="#25346F" d="M150.6,30.8c-6.2,0-10.8-4.4-10.8-11.4c0-6.9,4.4-11.3,10.8-11.3c6.4,0,10.5,4.5,10.5,10.5
			c0,0.8,0,1.4-0.1,2.2h-17.5c0.3,4.4,3.4,6.9,7.1,6.9c3.3,0,5.4-1.7,6.2-4h3.9C159.6,27.7,156.1,30.8,150.6,30.8z M143.6,17.9h13.8
			c0-4.3-3.2-6.6-6.9-6.6C146.9,11.2,144,13.6,143.6,17.9z"/>
		<path fill="#25346F" d="M175,2.6c6.6,0,9.7,3.6,9.7,8.2c0,3.6-2,7-6.6,8l7,11.7h-4.4L174,19h-4.4v11.4H166V2.6H175z M175,5.6h-5.4
			v10.6h5.4c4.1,0,5.9-2.2,5.9-5.4C180.9,7.6,179.1,5.6,175,5.6z"/>
		<path fill="#25346F" d="M189.7,2.5c0-1.4,1.1-2.5,2.5-2.5c1.3,0,2.4,1.1,2.4,2.5c0,1.4-1.1,2.5-2.4,2.5
			C190.8,5,189.7,3.9,189.7,2.5z M190.3,8.5h3.6v21.9h-3.6V8.5z"/>
		<path fill="#25346F" d="M209.7,30.8c-6.2,0-10.9-4.4-10.9-11.4c0-6.9,4.9-11.3,11.1-11.3c6.2,0,11.1,4.4,11.1,11.3
			C220.9,26.4,215.9,30.8,209.7,30.8z M209.7,27.6c3.8,0,7.5-2.6,7.5-8.2c0-5.5-3.6-8.1-7.4-8.1c-3.8,0-7.3,2.6-7.3,8.1
			C202.5,25,205.9,27.6,209.7,27.6z"/>
	</g>
</g>
</svg>
